<svg width="119" height="141" viewBox="0 0 119 141" fill="none" xmlns="http://www.w3.org/2000/svg">
<path d="M89.5078 97.9727C93.8041 95.7611 94.8951 89.7586 98.3831 86.6551C101.871 83.5516 108.617 82.5863 111.103 78.7609C113.555 74.9902 111.154 69.3164 112.447 65.0098C113.694 60.8398 118.734 57.0117 118.734 52.5C118.734 47.9883 113.426 44.1547 112.176 39.9957C110.883 35.6891 113.286 30.0152 110.834 26.2445C108.349 22.4219 101.605 21.4539 98.1173 18.3504C94.6292 15.2469 93.5413 9.24492 89.245 7.03281C85.0071 4.85105 78.6302 6.98805 73.7899 5.83652C69.3783 4.72227 65.0759 0 60.0051 0C54.9343 0 50.6318 4.72227 45.9606 5.83516C41.1049 6.98359 34.7434 4.84805 30.4963 7.02734C26.1999 9.23945 25.112 15.2414 21.624 18.3422C18.139 21.4457 11.3902 22.4137 8.90401 26.2363C6.4516 29.9961 8.85484 35.6836 7.56102 39.9766C6.30716 44.1602 1 47.9883 1 52.5C1 57.0117 6.30741 60.8453 7.5582 65.0043C8.85109 69.3109 6.44724 74.9848 8.89842 78.7555C11.3872 82.5781 18.1297 83.5352 21.6147 86.6523C25.1028 89.7559 26.1907 95.7578 30.4901 97.9727C34.7281 100.154 41.1019 98.0159 45.9422 99.1673C50.6318 100.27 54.9343 105 60.0051 105C65.0759 105 69.3845 100.278 74.0619 99.1648C78.9052 98.0273 85.2667 100.16 89.5078 97.9727ZM35.4195 52.5C35.4195 40.3949 46.4246 30.625 60.0051 30.625C73.5855 30.625 84.5906 40.3949 84.5906 52.5C84.5906 64.5777 73.5855 74.375 60.0051 74.375C46.4246 74.375 35.4195 64.5859 35.4195 52.5ZM1.52804 118.453C0.529248 120.692 0.9807 123.233 2.7189 125.084C4.4571 126.93 7.18425 127.79 9.82412 127.312L23.7119 124.841L30.2977 136.4C31.5657 138.633 34.0673 140 36.8639 140C36.9696 140 37.068 139.997 37.1737 139.993C40.0932 139.89 42.5979 138.329 43.7012 135.924L54.021 113.48C37.5148 112.212 22.6744 105.791 11.5494 95.9937L1.52804 118.453ZM108.439 96.0039C97.329 105.801 82.4855 112.221 65.9671 113.49L76.2869 135.934C77.3914 138.339 79.8948 139.899 82.8143 140.003C82.9311 139.754 82.7775 140 83.1462 140C85.941 140 88.4414 138.64 89.7075 136.407L96.2934 124.846L110.181 127.317C112.822 127.795 115.55 126.934 117.286 125.089C119.025 123.239 119.476 120.697 118.477 118.458L108.439 96.0039Z" fill="black"/>
</svg>
