<svg width="119" height="95" viewBox="0 0 119 95" fill="none" xmlns="http://www.w3.org/2000/svg">
<path d="M50.15 5H67.9606C71.5559 5 74.9484 6.67723 77.1794 9.55737L97.2394 35.3571H106.2C109.463 35.3571 112.1 38.0703 112.1 41.4286V53.5714C115.363 53.5714 118 56.2846 118 59.6428C118 63.0011 115.363 65.7143 112.1 65.7143H105.997C106.126 66.7009 106.2 67.7254 106.2 68.75C106.2 80.4944 96.9628 90 85.55 90C74.1372 90 64.9 80.4944 64.9 68.75C64.9 67.7254 64.9738 66.7009 65.1028 65.7143H52.8972C53.0262 66.7009 53.1 67.7254 53.1 68.75C53.1 80.4944 43.8628 90 32.45 90C21.0372 90 11.8 80.4944 11.8 68.75C11.8 67.7254 11.8719 66.7009 12.0083 65.7143H5.9C2.64209 65.7143 0 63.0011 0 59.6428C0 56.2846 2.64209 53.5714 5.9 53.5714V41.4286C5.9 38.0703 8.54209 35.3571 11.8 35.3571H41.3V14.1071C41.3 9.07734 45.2641 5 50.15 5ZM67.9606 17.1429H53.1V35.3571H82.1206L67.9606 17.1429ZM32.45 77.8571C37.3359 77.8571 41.3 73.7779 41.3 68.75C41.3 63.7221 37.3359 59.6428 32.45 59.6428C27.5641 59.6428 23.6 63.7221 23.6 68.75C23.6 73.7779 27.5641 77.8571 32.45 77.8571ZM85.55 77.8571C90.4359 77.8571 94.4 73.7779 94.4 68.75C94.4 63.7221 90.4359 59.6428 85.55 59.6428C80.6641 59.6428 76.7 63.7221 76.7 68.75C76.7 73.7779 80.6641 77.8571 85.55 77.8571Z" fill="black"/>
</svg>
