<svg width="110" height="110" viewBox="0 0 110 110" fill="none" xmlns="http://www.w3.org/2000/svg">
<path d="M108.925 82.5215C107.477 84.7129 104.825 85.9375 102.124 85.9375C100.776 85.9375 99.413 85.6354 98.1632 84.9976L92.0024 81.8522L93.3232 86.2114C94.1564 88.9636 92.2782 91.7909 89.1293 92.5149C88.6225 92.6358 88.1155 92.6895 87.6158 92.6895C85.0056 92.6895 82.6165 91.1654 81.9166 88.8567L77.5607 74.4793L62.861 66.9668L62.8611 82.1133L74.7406 92.6148C77.0335 94.6425 77.0104 97.9043 74.6946 99.9066C73.5423 100.912 72.0445 101.406 70.5466 101.406C69.026 101.406 67.5043 100.896 66.3527 99.8755L62.861 96.7882V103.125C62.861 106.926 59.3399 110 54.9962 110C50.6525 110 47.1313 106.926 47.1313 103.125L47.1313 96.7871L43.6396 99.8744C41.3507 101.902 37.6164 101.915 35.2984 99.9147C32.9824 97.9141 32.9596 94.651 35.2524 92.6229L47.1319 82.1213L46.9251 66.9668L32.2242 74.4713L27.8683 88.8486C27.1689 91.1582 24.7793 92.6814 22.1691 92.6814C21.6694 92.6814 21.1624 92.6277 20.6556 92.5069C17.5077 91.7818 15.6293 88.9555 16.4617 86.2034L17.7824 81.8442L11.6217 84.9895C10.5867 85.6367 9.22394 85.9375 7.87589 85.9375C5.17242 85.9375 2.53771 84.7155 1.07671 82.5258C-1.1165 79.2494 0.147322 75.0406 3.9005 73.1264L10.2749 69.8715L5.28292 68.6881C2.13747 67.9551 0.2836 65.1191 1.13565 62.3691C1.98769 59.6191 5.21417 58.0078 8.37189 58.7383L24.5558 62.584L39.4114 55L24.5558 47.416L8.37189 51.2617C7.85354 51.3826 7.33446 51.443 6.82372 51.443C4.2283 51.443 1.8465 49.9324 1.13687 47.636C0.2836 44.8809 2.13747 42.0664 5.28292 41.3145L10.2749 40.1311L3.9005 36.8672C0.14855 34.9538 -1.11601 30.7441 1.07671 27.4678C3.25839 24.185 8.07478 23.0764 11.8341 24.9971L17.9948 28.1424L16.6738 23.7832C15.8414 21.0354 17.7297 18.208 20.6517 17.484C24.0402 16.7385 27.0359 18.3971 28.0917 21.1428L32.4477 35.5201L46.9251 43.0332L46.925 27.8867L35.2617 17.3766C32.9781 15.3484 32.9781 12.085 35.3108 10.0848C37.6189 8.07598 41.3512 8.10391 43.6593 10.1256L47.151 13.2129L46.9251 6.875C46.9251 3.07441 50.4462 0 54.7899 0C59.1336 0 62.6548 3.07441 62.6548 6.875L62.6548 13.2129L66.1465 10.1256C68.4318 8.10477 72.1648 8.07791 74.4877 10.0853C76.8037 12.0859 76.8265 15.349 74.5337 17.3771L62.6542 27.8787L62.861 43.0332L77.5619 35.5287L81.9179 21.1514C82.7515 18.4057 85.9841 16.7471 89.132 17.4926C92.2799 18.2177 94.1583 21.0439 93.326 23.7961L92.0052 28.1553L98.1659 25.01C101.918 23.0966 106.738 24.2043 108.923 27.4807C111.117 30.757 109.853 34.9658 106.1 36.8801L99.7251 40.135L104.717 41.3183C107.863 42.0636 109.719 44.8976 108.864 47.6433C108.153 49.94 105.773 51.4504 103.178 51.4504C102.667 51.4504 102.148 51.3899 101.629 51.2691L85.2303 47.416L70.5957 55L85.4415 62.5797L101.635 58.7404C104.8 58.0078 108.017 59.6191 108.876 62.3691C109.729 65.1148 107.874 67.9486 104.729 68.6941L99.7372 69.8775L106.112 73.1324C109.859 75.0449 111.111 79.2559 108.925 82.5215Z" fill="black"/>
</svg>
