<svg width="110" height="140" viewBox="0 0 110 140" fill="none" xmlns="http://www.w3.org/2000/svg">
<path d="M91.6667 17.5H77.4555C75.0807 7.51406 66.0859 0 55 0C43.9141 0 34.6615 7.51406 32.5417 17.5H18.3333C8.20703 17.5 0 25.3367 0 35V122.5C0 132.163 8.20703 140 18.3333 140H91.6667C101.793 140 110 132.163 110 122.5V35C110 25.3367 101.779 17.5 91.6667 17.5ZM55 13.125C58.7898 13.125 61.875 16.0699 61.875 19.6875C61.875 23.3051 58.7813 26.25 55 26.25C51.2188 26.25 48.125 23.3051 48.125 19.6875C48.125 16.0699 51.2188 13.125 55 13.125ZM96.25 122.5C96.25 124.912 94.1938 126.875 91.6667 126.875H18.3333C15.8062 126.875 13.75 124.912 13.75 122.5V35C13.75 32.5883 15.8062 30.625 18.3333 30.625H23.5641C23.1831 32.0195 22.9167 33.4688 22.9167 35V39.375C22.9167 41.7812 24.9677 43.75 27.5 43.75H82.5C85.0312 43.75 87.0833 41.7911 87.0833 39.375V35C87.0833 33.48 86.8165 32.0305 86.4348 30.625H91.6667C94.1938 30.625 96.25 32.5883 96.25 35V122.5Z" fill="black"/>
</svg>
