<svg width="70" height="70" viewBox="0 0 70 70" fill="none" xmlns="http://www.w3.org/2000/svg">
<path d="M35 1.09375C15.67 1.09375 0 16.274 0 35C0 53.726 15.67 68.9062 35 68.9062C54.33 68.9062 70 53.726 70 35C70 16.274 54.33 1.09375 35 1.09375ZM51.2231 24.1527C50.6964 29.5142 48.4173 42.5247 47.2573 48.5297C46.7668 51.0705 45.8006 51.9225 44.8655 52.0058C42.8332 52.1871 41.2896 50.7046 39.3209 49.4545C36.2405 47.4983 34.5003 46.2805 31.51 44.3717C28.0545 42.1657 30.2946 40.9537 32.2639 38.9713C32.7793 38.4527 41.7347 30.5617 41.908 29.8458C41.9296 29.7563 41.9503 29.422 41.7451 29.2465C41.5399 29.0709 41.2385 29.1304 41.0204 29.1781C40.7115 29.2461 35.7905 32.3971 26.2572 38.6311C24.8605 39.5603 23.5953 40.013 22.4617 39.9893C21.212 39.9632 18.8081 39.3049 17.021 38.742C14.8291 38.0518 13.087 37.6869 13.2387 36.5147C13.3178 35.904 14.1857 35.2797 15.8426 34.6417C26.0458 30.3352 32.8496 27.496 36.2538 26.1241C45.9736 22.2075 47.9933 21.5272 49.3098 21.5045C49.5994 21.4998 50.2467 21.5693 50.666 21.8989C50.945 22.1337 51.1227 22.4614 51.1642 22.8171C51.2353 23.2588 51.255 23.7068 51.2231 24.1527Z" fill="black"/>
</svg>
