<svg width="70" height="70" viewBox="0 0 70 70" fill="none" xmlns="http://www.w3.org/2000/svg">
<path d="M4.92042 8.68037C0 12.9857 0 19.916 0 33.775V36.225C0 50.084 0 57.0143 4.92042 61.3196C9.84083 65.625 17.7611 65.625 33.6 65.625H36.4C52.2389 65.625 60.1592 65.625 65.0795 61.3196C70 57.0143 70 50.084 70 36.225V33.775C70 19.916 70 12.9857 65.0795 8.68037C60.1592 4.375 52.2389 4.375 36.4 4.375H33.6C17.7611 4.375 9.84083 4.375 4.92042 8.68037ZM11.8125 23.0053H19.8042C20.0667 34.6937 25.9583 39.6447 30.625 40.6656V23.0053H38.15V33.0859C42.7583 32.6521 47.6 28.0584 49.2333 23.0053H56.7583C56.1427 25.6259 54.9156 28.107 53.1541 30.294C51.3927 32.4808 49.1345 34.3261 46.5208 35.7146C49.4391 36.9823 52.0167 38.7775 54.0831 40.9816C56.1495 43.1858 57.6578 45.7486 58.5083 48.5006H50.225C49.4617 46.11 47.9084 43.9701 45.7602 42.3492C43.612 40.7284 40.9645 39.6987 38.15 39.3896V48.5006H37.2458C21.2917 48.5006 12.1917 38.9303 11.8125 23.0053Z" fill="black"/>
</svg>
