<svg width="70" height="70" viewBox="0 0 70 70" fill="none" xmlns="http://www.w3.org/2000/svg">
<path d="M59.5156 13.2754C52.9688 7.5332 44.25 4.375 34.9844 4.375C15.8594 4.375 0.296875 17.9922 0.296875 34.7266C0.296875 40.0723 1.89062 45.2949 4.92188 49.9023L0 65.625L18.3906 61.4004C23.4531 63.8203 29.1562 65.0918 34.9688 65.0918H34.9844C54.0938 65.0918 70 51.4746 70 34.7402C70 26.6328 66.0625 19.0176 59.5156 13.2754ZM34.9844 59.9785C29.7969 59.9785 24.7187 58.7617 20.2969 56.4648L19.25 55.918L8.34375 58.4199L11.25 49.1094L10.5625 48.1523C7.67188 44.1328 6.15625 39.498 6.15625 34.7266C6.15625 20.8223 19.0938 9.50195 35 9.50195C42.7031 9.50195 49.9375 12.127 55.375 16.8984C60.8125 21.6699 64.1562 28 64.1406 34.7402C64.1406 48.6582 50.875 59.9785 34.9844 59.9785ZM50.7969 41.084C49.9375 40.7012 45.6719 38.8691 44.875 38.623C44.0781 38.3633 43.5 38.2402 42.9219 39.0059C42.3438 39.7715 40.6875 41.4668 40.1719 41.9863C39.6719 42.4922 39.1562 42.5605 38.2969 42.1777C33.2031 39.9492 29.8594 38.1992 26.5 33.1543C25.6094 31.8145 27.3906 31.9102 29.0469 29.0117C29.3281 28.5059 29.1875 28.0684 28.9688 27.6855C28.75 27.3027 27.0156 23.5703 26.2969 22.0527C25.5938 20.5762 24.875 20.7812 24.3438 20.7539C23.8438 20.7266 23.2656 20.7266 22.6875 20.7266C22.1094 20.7266 21.1719 20.918 20.375 21.6699C19.5781 22.4355 17.3438 24.2676 17.3438 28C17.3438 31.7324 20.4531 35.3418 20.875 35.8477C21.3125 36.3535 26.9844 44.0098 35.6875 47.3047C41.1875 49.3828 43.3438 49.5605 46.0938 49.2051C47.7656 48.9863 51.2188 47.373 51.9375 45.5957C52.6562 43.8184 52.6562 42.3008 52.4375 41.9863C52.2344 41.6445 51.6562 41.4531 50.7969 41.084Z" fill="black"/>
</svg>
