<svg width="512" height="495" viewBox="0 0 512 495" fill="none" xmlns="http://www.w3.org/2000/svg">
<g clip-path="url(#clip0_110_3)">
<path d="M492.7 41.3308C517.7 65.491 517.7 104.704 492.7 128.874L436.3 183.402L322.3 73.2061L378.7 18.6787C403.7 -5.48926 444.3 -5.48926 469.3 18.6787L492.7 41.3308ZM44.89 341.473L299.7 95.075L413.7 205.251L158.8 451.591C152.1 458.069 143.8 462.806 134.6 465.416L30.59 494.13C22.21 496.45 13.19 494.13 7.03002 487.363C0.866923 482.239 -1.46998 473.537 0.924222 465.416L30.65 364.869C33.26 355.975 38.16 347.95 44.89 341.473ZM249.4 99.967L103.4 241.119L16 156.525C-2.74498 138.446 -2.74498 109.055 16 90.9371L94.06 15.469C112.8 -2.65365 143.2 -2.65365 161.9 15.469L181.7 34.5729C181.4 34.8532 181 35.1529 180.7 35.472L116.7 97.3567C110.4 103.351 110.4 113.212 116.7 119.206C122.9 125.297 133.1 125.297 139.3 119.206L203.3 57.3409C203.6 57.0316 203.1 56.7029 204.2 56.3645L249.4 99.967ZM453.7 297.58C453.4 297.774 453 298.16 452.7 298.45L388.7 360.325C382.4 366.32 382.4 376.181 388.7 382.175C394.9 388.266 405.1 388.266 411.3 382.175L475.3 320.3C475.6 319.14 475.1 319.623 476.2 319.333L496 338.476C514.7 356.555 514.7 385.946 496 404.025L417.9 479.532C399.2 497.611 368.8 497.611 350.1 479.532L262.6 395.033L408.6 253.881L453.7 297.58Z" fill="#818181" fill-opacity="0.4"/>
</g>
<defs>
<clipPath id="clip0_110_3">
<rect width="512" height="495" fill="white"/>
</clipPath>
</defs>
</svg>
