<svg width="125" height="150" viewBox="0 0 125 150" fill="none" xmlns="http://www.w3.org/2000/svg">
<path d="M109.375 18.75H91.8359C87.5326 7.85156 76.0742 0 62.5 0C48.9258 0 37.4674 7.85156 33.1706 18.75H15.625C6.9987 18.75 0 25.043 0 32.8125V135.938C0 143.701 6.9987 150 15.625 150H109.375C118.001 150 125 143.707 125 135.938V32.8125C125 25.043 118.001 18.75 109.375 18.75ZM62.5 18.75C68.252 18.75 72.9167 22.9482 72.9167 28.125C72.9167 33.3018 68.252 37.5 62.5 37.5C56.748 37.5 52.0833 33.3105 52.0833 28.125C52.0833 22.9395 56.7383 18.75 62.5 18.75ZM92.0898 76.9922L63.444 109.805C62.1266 111.315 60.1823 112.277 58.0632 112.46C57.8125 112.236 57.5521 112.5 57.2917 112.5C55.4352 112.5 53.6296 111.905 52.207 110.806L33.9779 96.7438C30.7031 94.217 30.3255 89.7771 33.1335 86.8298C35.9359 83.8825 40.8711 83.5427 44.1491 86.0698L56.1869 95.354L79.7936 68.3188C82.459 65.2603 87.3783 64.7388 90.7637 67.1288C94.1732 69.5215 94.7591 73.9453 92.0898 76.9922Z" fill="white"/>
</svg>
