<svg width="180" height="130" viewBox="0 0 180 130" fill="none" xmlns="http://www.w3.org/2000/svg">
<path d="M0 97.4746L18 97.4849C22.9922 97.4849 27 93.8566 27 89.3523V32.5762H0V97.4746ZM13.5 81.2754C15.9609 81.2754 18 83.0827 18 85.3354C18 87.555 15.9609 89.3953 13.5 89.3953C11.0391 89.3953 9 87.5469 9 85.3379C9 83.0781 11.0391 81.2754 13.5 81.2754ZM98.1 16.25C95.8666 16.25 93.6956 17.0039 92.0475 18.3646L64.3781 41.209C64.35 41.2598 64.35 41.3106 64.2938 41.3106C59.625 45.2715 59.7094 51.5938 63.7031 55.5293C67.2891 58.8555 74.7787 60.0032 79.4897 56.2276C79.5375 56.1895 79.5656 56.1895 79.5938 56.1641L102.06 37.6036C103.888 36.1129 106.771 36.2081 108.422 37.8575C110.109 39.5068 109.969 42.0774 108.141 43.6008L100.794 49.6616L141.75 79.6504C142.559 80.2842 143.297 80.9189 143.965 81.6162V32.2715C132.439 21.8715 116.83 16.052 100.54 16.052L98.1 16.25ZM94.1063 55.1993L85.6688 62.1791C77.3016 69.0625 64.5047 68.3973 57.0375 61.0693C49.5 53.625 50.0906 42.0723 58.3031 35.2676L81.3094 16.25H79.4531C63.1969 16.25 47.5594 22.1102 36.0562 32.4747L36 89.3242L41.1328 89.3336L66.5859 110.108C74.3203 115.788 85.6406 114.709 91.8984 107.761L96.9947 111.63C101.461 114.702 108.07 114.296 111.727 110.266L120.552 100.466L122.064 101.608C125.931 104.401 131.592 103.893 134.72 100.402L137.402 97.4111C140.53 93.9199 139.944 88.8342 136.082 86.0031L94.1063 55.1993ZM153 32.6016V89.375C153 93.8488 157.008 97.5127 161.747 97.5127L180 97.5V32.5254L153 32.6016ZM166.5 89.375C164.039 89.375 162 87.5352 162 85.3151C162 83.0616 164.039 81.2551 166.5 81.2551C168.961 81.2551 171 83.0781 171 85.3379C171 87.5469 168.975 89.375 166.5 89.375Z" fill="white"/>
</svg>
