<svg width="135" height="150" viewBox="0 0 135 150" fill="none" xmlns="http://www.w3.org/2000/svg">
<path d="M106.071 37.5C106.071 58.2129 88.8047 75 67.5 75C46.1953 75 28.9286 58.2129 28.9286 37.5C28.9286 16.79 46.1953 0 67.5 0C88.8047 0 106.071 16.79 106.071 37.5ZM63.01 105.234L53.0357 89.0625H81.9643L71.99 105.234L82.0246 141.533L93.9275 94.3066C117.191 97.8223 135 117.393 135 141.006C135 145.957 130.842 150 125.749 150H9.25714C4.14342 150 0 145.957 0 141.006C0 117.393 17.8061 97.8223 41.0725 94.3066L52.9754 141.533L63.01 105.234Z" fill="white"/>
</svg>
